<svg width="200" height="240" viewBox="0 0 200 240" fill="none" xmlns="http://www.w3.org/2000/svg">
  <defs>
    <linearGradient id="gradientG" x1="0%" y1="0%" x2="100%" y2="100%">
      <stop offset="0%" style="stop-color:#FF1B8F;stop-opacity:1" />
      <stop offset="100%" style="stop-color:#FF6B3D;stop-opacity:1" />
    </linearGradient>
    <linearGradient id="gradientO" x1="0%" y1="0%" x2="100%" y2="100%">
      <stop offset="0%" style="stop-color:#00D9FF;stop-opacity:1" />
      <stop offset="100%" style="stop-color:#6B73FF;stop-opacity:1" />
    </linearGradient>
  </defs>
  
  <!-- Background -->
  <rect width="200" height="240" fill="#000000" rx="20"/>
  
  <!-- G letter -->
  <path d="M40 50 C40 30, 55 15, 75 15 L85 15 C105 15, 120 30, 120 50 L120 60 L105 60 L105 50 C105 38, 97 30, 85 30 L75 30 C63 30, 55 38, 55 50 L55 90 C55 102, 63 110, 75 110 L85 110 C97 110, 105 102, 105 90 L105 80 L80 80 L80 65 L120 65 L120 90 C120 110, 105 125, 85 125 L75 125 C55 125, 40 110, 40 90 Z" fill="url(#gradientG)"/>
  
  <!-- O letter -->
  <circle cx="150" cy="80" r="35" fill="none" stroke="url(#gradientO)" stroke-width="15"/>
  
  <!-- Text Gigster -->
  <text x="100" y="200" font-family="Arial, sans-serif" font-size="32" font-weight="bold" text-anchor="middle" fill="white">Gigster</text>
</svg>